<?xml version="1.0" standalone="no"?>
<!DOCTYPE svg PUBLIC "-//W3C//DTD SVG 20010904//EN"
 "http://www.w3.org/TR/2001/REC-SVG-20010904/DTD/svg10.dtd">
<svg version="1.0" xmlns="http://www.w3.org/2000/svg"
 width="12pt" height="12pt" viewBox="0 0 1280.000000 1232.000000"
 preserveAspectRatio="xMidYMid meet">
<metadata>
Created by potrace 1.15, written by Peter Selinger 2001-2017
</metadata>
<g transform="translate(0.000000,1232.000000) scale(0.100000,-0.100000)"
fill="#000000" stroke="none">
<path d="M7870 12313 c-25 -2 -108 -12 -185 -23 -374 -53 -729 -188 -1050
-398 -589 -386 -998 -980 -1140 -1657 -9 -44 -19 -87 -21 -97 -4 -12 -38 -22
-152 -43 -81 -15 -152 -28 -159 -30 -6 -2 -50 54 -98 124 -201 299 -498 554
-840 721 -309 151 -607 220 -955 220 -481 0 -921 -146 -1310 -433 -115 -85
-344 -312 -429 -425 -234 -310 -384 -685 -431 -1072 -17 -141 -12 -408 10
-557 83 -570 379 -1074 836 -1424 213 -164 498 -302 792 -385 9 -2 12 -36 12
-124 l0 -120 -221 0 c-178 0 -224 3 -233 14 -6 8 -123 55 -259 106 l-248 91
-181 -1 c-100 0 -184 -2 -186 -5 -4 -4 68 -156 265 -565 52 -107 140 -289 195
-405 55 -115 103 -213 107 -217 9 -10 212 48 222 63 5 8 32 51 59 95 28 45 57
85 66 88 20 8 378 8 398 0 14 -6 16 -135 16 -1365 l0 -1359 345 0 345 0 0 -22
c0 -40 -72 -573 -79 -580 -6 -7 -1544 -304 -1627 -315 -38 -5 -59 3 -218 86
l-175 92 -668 -127 c-367 -69 -669 -128 -671 -129 -3 -3 88 -739 93 -743 2 -3
46 3 97 13 150 27 1187 224 1216 231 17 4 88 66 184 162 l157 156 548 117
c1339 288 1263 271 1268 293 2 12 29 176 60 366 30 190 58 357 61 373 l6 27
3318 -2 3318 -2 2 1704 c2 938 2 1958 1 2268 l-1 562 -287 0 -286 0 63 58
c481 434 774 980 866 1617 24 166 25 523 1 695 -134 962 -756 1755 -1654 2108
-355 140 -779 204 -1163 175z m430 -1259 c500 -101 908 -493 1029 -987 79
-324 35 -655 -126 -957 -178 -333 -512 -583 -893 -666 -108 -24 -347 -29 -475
-10 -549 81 -980 487 -1106 1041 -32 142 -32 395 -1 542 56 257 166 464 353
658 214 222 500 364 794 395 106 11 331 3 425 -16z m-4860 -939 c426 -64 768
-373 881 -794 29 -109 37 -335 15 -458 -45 -258 -181 -486 -389 -655 -90 -73
-285 -171 -393 -198 -255 -63 -507 -41 -731 65 -322 152 -544 437 -609 782
-25 132 -15 357 20 478 158 538 661 863 1206 780z m2394 -1817 c93 -154 226
-319 388 -480 l157 -158 -674 0 -675 0 55 83 c102 153 191 334 251 507 l19 54
195 37 c107 20 204 37 215 38 15 0 33 -21 69 -81z m-2796 -2865 l2 -1163 -30
0 -30 0 0 1166 0 1165 28 -3 27 -3 3 -1162z m104 -1 l3 -1162 -27 0 -28 0 0
1166 0 1165 25 -3 25 -3 2 -1163z m108 3 l0 -1165 -25 0 -25 0 0 1165 0 1165
25 0 25 0 0 -1165z m110 0 l0 -1165 -25 0 -25 0 0 1165 0 1165 25 0 25 0 0
-1165z m990 1141 c0 -19 -6 -24 -37 -30 -21 -3 -219 -6 -440 -6 l-403 0 0 -25
0 -25 440 0 440 0 0 -25 0 -25 -440 0 -440 0 0 -30 0 -30 440 0 440 0 0 -25 0
-25 -440 0 -440 0 0 -25 0 -25 440 0 440 0 0 -30 0 -30 -440 0 -440 0 0 -25 0
-25 440 0 440 0 0 -24 c0 -13 -7 -27 -16 -30 -9 -3 -207 -6 -440 -6 l-424 0 0
-215 0 -215 325 0 325 0 0 -30 0 -30 -325 0 -325 0 0 -25 0 -25 325 0 325 0 0
-25 0 -25 -325 0 -325 0 0 -30 0 -30 325 0 325 0 0 -25 0 -25 -325 0 -325 0 0
-27 0 -28 325 3 325 3 0 -30 0 -31 -325 0 -325 0 0 -25 0 -25 325 0 325 0 0
-25 0 -25 -322 -2 -323 -3 -3 -462 -2 -463 -24 0 -23 0 -6 1157 c-3 637 -3
1161 -1 1165 3 5 214 8 470 8 l464 0 0 -24z m220 -1141 l0 -1165 -25 0 -25 0
0 1165 0 1165 25 0 25 0 0 -1165z m110 0 l0 -1165 -25 0 -25 0 0 1165 0 1165
25 0 25 0 0 -1165z m110 0 l0 -1165 -30 0 -30 0 0 1158 c0 637 3 1162 7 1165
3 4 17 7 30 7 l23 0 0 -1165z m110 0 l0 -1165 -30 0 -30 0 0 1158 c0 637 3
1162 7 1165 3 4 17 7 30 7 l23 0 0 -1165z m108 -2 l2 -1163 -30 0 -30 0 0
1166 0 1165 28 -3 27 -3 3 -1162z m242 2 l0 -1165 -27 0 -28 0 1 1158 c1 636
2 1160 3 1165 0 4 12 7 26 7 l25 0 0 -1165z m110 0 l0 -1165 -30 0 -30 0 0
1158 c0 637 3 1162 7 1165 3 4 17 7 30 7 l23 0 0 -1165z m108 -2 l2 -1163 -30
0 -30 0 0 1166 0 1165 28 -3 27 -3 3 -1162z m102 424 c0 -409 3 -933 7 -1165
l6 -422 -30 0 c-27 0 -31 4 -37 38 -8 49 -8 759 1 1610 l6 682 24 0 23 0 0
-743z m110 -182 l0 -925 480 0 480 0 0 -25 0 -25 -477 -2 -478 -3 0 -25 0 -25
478 -3 477 -2 0 -25 0 -25 -480 0 -480 0 0 -25 0 -25 478 -2 477 -3 3 -27 3
-28 -480 0 c-474 0 -481 0 -481 -20 0 -20 7 -20 469 -20 258 0 476 -2 483 -5
10 -4 13 -16 10 -35 l-4 -30 -480 0 -479 0 3 -22 3 -23 478 -3 477 -2 0 -25 0
-25 -505 0 -505 0 0 1165 0 1165 25 0 25 0 0 -925z m2020 -202 c265 -621 484
-1130 485 -1131 2 -2 10 9 18 25 14 27 2 58 -454 1123 -258 602 -469 1099
-469 1103 0 5 12 7 27 5 27 -3 46 -45 483 -1066 452 -1058 454 -1064 469
-1033 18 37 74 -104 -450 1128 -225 528 -409 964 -409 967 0 3 13 6 29 6 28 0
32 -6 94 -152 247 -581 721 -1699 748 -1763 l32 -77 19 30 18 30 -266 618
c-614 1426 -566 1309 -537 1312 14 2 29 0 33 -5 5 -4 185 -421 401 -927 346
-808 394 -916 406 -900 7 10 13 26 13 35 0 10 -171 416 -380 904 -209 488
-380 889 -380 891 0 2 12 4 28 4 27 0 34 -17 391 -852 200 -469 367 -856 370
-860 4 -4 121 252 261 570 550 1251 500 1142 530 1142 l26 0 52 -307 c29 -170
77 -454 107 -633 30 -179 94 -552 140 -830 47 -278 88 -517 91 -532 5 -25 3
-28 -23 -28 l-28 0 -33 198 c-79 470 -202 1189 -208 1216 -7 33 5 59 -395
-854 -132 -299 -243 -548 -248 -553 -5 -5 -20 -7 -33 -5 -25 3 -23 8 122 338
563 1282 532 1208 525 1253 l-7 41 -20 -38 c-17 -33 -445 -1010 -636 -1451
-58 -133 -62 -140 -91 -143 -17 -2 -31 1 -31 6 0 4 171 397 380 872 257 585
378 871 375 887 -3 13 -8 35 -11 50 -4 21 -90 -166 -409 -893 -374 -852 -406
-919 -429 -922 -15 -2 -26 0 -26 3 0 6 716 1640 809 1848 30 67 36 107 22 157
-8 27 40 132 -530 -1165 -346 -788 -370 -840 -395 -843 -14 -2 -26 -1 -26 3 0
3 209 482 465 1065 266 606 465 1072 464 1087 0 16 -4 37 -8 48 -7 18 -10 16
-23 -15 -9 -19 -212 -485 -453 -1035 -240 -550 -452 -1034 -470 -1075 -29 -69
-35 -75 -64 -78 -30 -3 -33 0 -57 55 -15 32 -157 362 -316 733 -159 371 -293
679 -298 683 -8 9 -16 -29 -84 -433 -25 -146 -75 -437 -111 -648 -36 -210 -65
-385 -65 -387 0 -8 -50 -5 -50 3 0 4 59 363 131 798 130 786 131 791 114 830
-10 21 -19 35 -21 29 -4 -12 -284 -1643 -284 -1656 0 -5 -11 -9 -25 -9 -14 0
-25 3 -25 6 0 3 65 394 145 868 80 475 145 875 145 889 0 28 -19 77 -30 77 -4
0 -12 -30 -18 -67 -11 -63 -36 -208 -221 -1308 -39 -231 -73 -430 -76 -442 -4
-16 -13 -23 -30 -23 -14 0 -25 5 -25 12 0 6 31 196 70 422 199 1179 250 1485
250 1511 0 31 -20 95 -30 95 -3 0 -11 -37 -18 -81 -22 -140 -318 -1882 -328
-1931 -4 -21 -11 -28 -30 -28 -13 0 -24 1 -24 3 0 3 113 678 290 1727 l68 405
-20 45 c-12 25 -23 38 -24 30 -2 -8 -49 -285 -104 -615 -214 -1273 -260 -1551
-265 -1572 -4 -16 -13 -23 -30 -23 -14 0 -25 5 -25 10 0 6 58 354 129 773 71
419 157 926 191 1127 33 201 63 377 66 393 5 22 11 27 34 27 27 0 34 -15 510
-1127z m1650 1120 c0 -13 374 -2235 386 -2296 5 -26 4 -28 -22 -25 l-28 3 -42
250 c-23 138 -74 437 -113 665 -38 228 -107 631 -151 895 -44 264 -83 488 -86
498 -4 13 1 17 25 17 17 0 31 -3 31 -7z m154 -275 c26 -156 69 -411 96 -568
27 -157 92 -541 144 -855 53 -313 99 -582 102 -597 5 -25 3 -28 -23 -28 l-28
0 -38 223 c-20 122 -81 485 -136 807 -55 322 -124 734 -155 915 -31 182 -59
342 -62 358 -5 25 -3 27 23 27 l29 0 48 -282z m78 177 c9 -55 53 -314 97 -575
45 -261 124 -729 176 -1040 52 -311 97 -575 100 -587 5 -20 1 -23 -25 -23 -16
0 -30 5 -30 11 0 6 -61 374 -135 818 -214 1275 -245 1455 -250 1479 -5 21 -2
23 22 20 27 -3 28 -6 45 -103z m93 93 c3 -7 34 -186 70 -398 36 -212 87 -518
115 -680 27 -162 84 -495 125 -740 41 -245 78 -457 81 -472 5 -25 3 -28 -23
-28 l-28 0 -38 223 c-20 122 -68 407 -106 632 -39 226 -108 640 -156 920 -47
281 -88 520 -90 533 -5 18 -1 22 20 22 14 0 28 -6 30 -12z m-21 -2540 c25 -8
61 -32 93 -63 230 -224 -93 -573 -334 -361 -59 52 -83 104 -83 184 0 73 19
124 63 170 70 73 165 98 261 70z"/>
<path d="M7833 10674 c-54 -20 -116 -89 -133 -148 -44 -159 116 -308 275 -256
169 56 195 295 41 385 -55 32 -127 40 -183 19z"/>
<path d="M8483 10260 c-180 -92 -154 -349 40 -401 139 -37 279 84 264 227 -11
109 -91 185 -201 192 -47 2 -70 -2 -103 -18z"/>
<path d="M7328 10100 c-101 -30 -166 -154 -138 -260 16 -61 89 -134 150 -150
109 -29 223 32 259 139 55 166 -101 322 -271 271z"/>
<path d="M8402 9499 c-121 -60 -159 -220 -75 -319 48 -55 99 -80 167 -80 67 0
93 9 140 51 51 44 76 97 76 159 0 154 -169 258 -308 189z"/>
<path d="M7625 9378 c-69 -25 -124 -90 -140 -166 -21 -99 62 -219 166 -242
210 -47 349 214 192 362 -55 53 -145 72 -218 46z"/>
<path d="M3105 9796 c-151 -68 -133 -283 27 -327 114 -30 234 81 212 196 -20
106 -143 174 -239 131z"/>
<path d="M3626 9456 c-109 -66 -114 -219 -9 -291 30 -20 50 -25 99 -25 59 0
64 2 111 44 l48 44 0 80 c0 76 -2 83 -30 113 -60 63 -149 78 -219 35z"/>
<path d="M2721 9340 c-77 -18 -131 -86 -131 -167 0 -65 18 -103 67 -140 31
-24 46 -28 102 -28 78 0 120 24 151 85 68 133 -45 282 -189 250z"/>
<path d="M3593 8859 c-48 -14 -98 -69 -111 -121 -21 -82 16 -161 91 -197 71
-34 135 -25 190 27 41 39 57 74 57 127 0 53 -16 88 -57 128 -46 43 -104 55
-170 36z"/>
<path d="M2916 8736 c-79 -48 -108 -144 -66 -226 28 -55 72 -83 140 -88 186
-14 257 221 96 319 -45 27 -120 25 -170 -5z"/>
<path d="M12645 7844 c-272 -166 -1140 -691 -1161 -702 -15 -8 -182 -12 -545
-14 l-524 -3 -3 -1007 -2 -1007 528 -3 527 -3 180 -109 c99 -60 236 -143 305
-184 69 -41 170 -102 225 -135 124 -75 549 -332 593 -359 l32 -20 0 1816 c0
999 -3 1816 -7 1816 -5 -1 -71 -39 -148 -86z"/>
<path d="M4754 2961 c-2 -2 -4 -206 -4 -453 l0 -448 121 0 c103 0 120 -2 115
-15 -5 -13 -179 -872 -345 -1700 l-68 -340 170 -3 c93 -1 171 -1 173 1 4 4
414 2034 414 2048 0 5 108 9 239 9 l239 0 8 -127 c18 -265 31 -195 -204 -1058
-117 -429 -220 -801 -227 -828 l-14 -47 177 0 177 0 79 293 c44 160 83 298 87
306 4 8 10 -39 14 -105 4 -65 12 -202 19 -304 l11 -185 203 -3 202 -2 0 26 c0
14 -7 128 -15 253 -8 124 -24 375 -35 556 -11 182 -29 483 -41 670 l-22 341
29 106 29 106 305 4 c168 1 430 1 583 0 l278 -4 -6 -86 c-5 -77 -57 -1078 -85
-1652 -5 -113 -12 -231 -15 -262 l-6 -58 204 0 204 0 7 93 c6 85 25 460 42
819 4 82 10 148 13 148 3 0 23 -66 45 -148 21 -81 80 -300 131 -487 51 -187
98 -359 104 -382 l12 -43 176 0 c162 0 175 1 171 18 -18 63 -315 1153 -384
1407 -46 171 -103 382 -127 470 l-44 160 300 3 c166 1 304 -1 307 -5 4 -5 52
-235 108 -513 167 -834 302 -1504 308 -1522 5 -16 22 -18 175 -18 97 0 169 4
169 9 0 5 -27 144 -60 308 -34 164 -110 541 -170 838 -60 297 -125 618 -144
714 -20 95 -36 177 -36 182 0 5 45 9 100 9 l100 0 0 456 0 456 -2146 -3
c-1180 -2 -2148 -6 -2150 -8z"/>
</g>
</svg>
