<?xml version="1.0" standalone="no"?>
<!DOCTYPE svg PUBLIC "-//W3C//DTD SVG 20010904//EN"
 "http://www.w3.org/TR/2001/REC-SVG-20010904/DTD/svg10.dtd">
<svg version="1.0" xmlns="http://www.w3.org/2000/svg"
 width="12pt" height="12pt" viewBox="0 0 1218.000000 1280.000000"
 preserveAspectRatio="xMidYMid meet">
<metadata>
Created by potrace 1.15, written by Peter Selinger 2001-2017
</metadata>
<g transform="translate(0.000000,1280.000000) scale(0.100000,-0.100000)"
fill="#000000" stroke="none">
<path d="M4700 12789 c-776 -47 -1506 -443 -1979 -1073 -234 -311 -404 -685
-480 -1055 -57 -272 -54 -196 -58 -1816 -3 -825 -1 -1551 2 -1612 l7 -113
3938 0 3937 0 6 83 c11 136 8 2928 -3 3082 -27 376 -119 710 -289 1040 -215
419 -511 752 -902 1014 -409 274 -842 419 -1344 451 -186 12 -2642 11 -2835
-1z"/>
<path d="M1386 8450 c-63 -16 -155 -71 -193 -114 -20 -23 -49 -69 -65 -102
l-29 -62 1 -1847 c0 -2008 -1 -1935 56 -2195 214 -960 1011 -1725 1980 -1899
236 -42 247 -42 2989 -39 2397 3 2639 5 2730 20 314 53 523 120 787 255 378
192 696 477 940 843 239 358 375 761 408 1205 13 177 13 3464 1 3587 -12 112
-46 182 -123 253 -78 73 -146 99 -259 99 -77 0 -93 -3 -150 -31 -118 -58 -200
-165 -216 -283 -7 -49 -11 -55 -38 -63 l-30 -8 3 -1592 c2 -1068 -1 -1628 -8
-1702 -77 -801 -656 -1460 -1444 -1646 -209 -49 -146 -47 -2657 -48 -1526 -1
-2393 2 -2460 9 -436 43 -818 221 -1132 529 -322 315 -512 709 -557 1158 -8
75 -10 596 -8 1701 l3 1592 -31 6 c-30 5 -32 9 -39 60 -15 122 -117 251 -233
294 -66 25 -169 34 -226 20z"/>
<path d="M5 7778 c-3 -7 -4 -294 -3 -638 l3 -625 413 -3 412 -2 0 640 0 640
-410 0 c-319 0 -412 -3 -415 -12z"/>
<path d="M11352 7153 l3 -638 413 -3 412 -2 0 640 0 640 -415 0 -415 0 2 -637z"/>
<path d="M2301 6729 l-211 -201 0 -349 c0 -192 2 -349 5 -349 9 0 1095 1083
1095 1091 0 5 -153 8 -339 8 l-340 0 -210 -200z"/>
<path d="M2969 6184 l-747 -747 130 -261 c72 -144 132 -263 135 -266 5 -5
2013 2002 2013 2012 0 4 -176 7 -392 8 l-392 0 -747 -746z"/>
<path d="M4084 6068 c-893 -907 -1253 -1274 -1371 -1398 l-72 -76 154 -147
c85 -82 179 -170 208 -197 l54 -49 1079 1115 c1523 1575 1544 1597 1544 1606
0 4 -168 8 -374 8 l-374 0 -848 -862z"/>
<path d="M6085 6838 c-551 -560 -2172 -2206 -2458 -2497 -214 -216 -365 -377
-360 -382 5 -5 119 -74 253 -153 l245 -145 53 52 c120 117 3147 3199 3150
3207 2 5 -158 9 -394 10 l-397 0 -92 -92z"/>
<path d="M6863 5118 c-992 -992 -1803 -1804 -1803 -1805 0 -2 188 -3 418 -3
l419 0 1754 1797 c965 988 1756 1801 1757 1805 2 4 -164 8 -370 8 l-373 0
-1802 -1802z"/>
<path d="M5781 5236 c-1572 -1572 -1673 -1676 -1650 -1684 13 -5 150 -53 305
-105 l281 -97 155 158 c233 236 3175 3275 3236 3343 l54 59 -354 0 -353 0
-1674 -1674z"/>
<path d="M8135 5100 l-1810 -1810 416 0 415 0 85 87 c46 47 675 689 1397 1426
l1312 1340 0 383 c0 211 -1 384 -3 384 -1 0 -817 -814 -1812 -1810z"/>
<path d="M8712 4497 c-584 -584 -1062 -1063 -1062 -1064 0 -4 157 44 251 78
585 209 1092 557 1361 934 114 160 274 472 386 750 64 160 134 356 129 361 -1
2 -481 -475 -1065 -1059z"/>
<path d="M5865 1974 c-648 -88 -1215 -494 -1509 -1081 -126 -254 -192 -506
-210 -805 l-5 -88 1994 0 1995 0 0 33 c0 17 -5 84 -11 147 -31 337 -143 653
-330 931 -319 474 -814 782 -1390 864 -129 18 -398 18 -534 -1z"/>
</g>
</svg>
