<?xml version="1.0" standalone="no"?>
<!DOCTYPE svg PUBLIC "-//W3C//DTD SVG 20010904//EN"
 "http://www.w3.org/TR/2001/REC-SVG-20010904/DTD/svg10.dtd">
<svg version="1.0" xmlns="http://www.w3.org/2000/svg"
 width="12pt" height="12pt" viewBox="0 0 516.000000 1280.000000"
 preserveAspectRatio="xMidYMid meet">
<metadata>
Created by potrace 1.15, written by Peter Selinger 2001-2017
</metadata>
<g transform="translate(0.000000,1280.000000) scale(0.100000,-0.100000)"
fill="#000000" stroke="none">
<path d="M2755 12686 c-115 -31 -161 -57 -239 -133 -138 -135 -167 -212 -168
-441 -1 -151 -1 -154 -24 -162 -65 -25 -29 -296 48 -353 15 -11 28 -25 28 -30
0 -6 -27 -36 -60 -68 -39 -39 -70 -80 -88 -121 -16 -35 -47 -83 -69 -108 -37
-42 -101 -143 -149 -235 -26 -49 -123 -108 -164 -100 -17 4 -47 -5 -85 -24
-33 -16 -99 -39 -148 -50 -97 -23 -150 -47 -199 -90 -18 -16 -60 -42 -93 -59
-33 -16 -73 -44 -90 -62 -16 -17 -47 -40 -67 -51 -95 -49 -166 -151 -193 -279
-24 -111 -83 -495 -101 -650 -8 -74 -28 -214 -44 -310 -16 -96 -31 -200 -34
-230 -4 -30 -20 -170 -37 -310 -30 -252 -30 -259 -26 -635 4 -345 7 -394 30
-535 14 -85 32 -186 41 -225 21 -99 82 -502 101 -679 10 -81 28 -201 42 -265
30 -144 44 -285 36 -373 -8 -95 6 -114 89 -123 87 -10 104 -23 113 -84 4 -28
16 -62 26 -75 20 -25 20 -25 -16 -193 -20 -92 -40 -217 -45 -278 -5 -60 -17
-196 -26 -302 -18 -198 -15 -412 5 -465 5 -15 34 -43 62 -62 29 -19 65 -55 80
-79 20 -32 36 -46 59 -50 18 -4 54 -28 85 -58 42 -40 75 -59 152 -89 85 -33
101 -43 118 -73 17 -32 18 -40 6 -73 -10 -28 -11 -62 -5 -143 10 -139 7 -380
-8 -457 -9 -47 -7 -100 6 -255 22 -253 31 -316 71 -479 34 -138 49 -225 60
-339 4 -36 15 -87 26 -115 10 -28 24 -100 30 -161 16 -160 69 -329 130 -415
13 -19 20 -60 29 -165 6 -77 16 -160 22 -185 20 -79 20 -118 4 -167 -20 -57
-20 -91 -2 -134 12 -29 12 -37 -2 -64 -23 -45 -65 -194 -79 -280 -3 -22 -12
-52 -19 -67 -8 -15 -14 -46 -14 -70 0 -24 -5 -71 -10 -105 -13 -81 7 -150 61
-204 47 -47 114 -63 253 -57 112 4 166 23 265 96 79 58 82 70 72 265 -10 174
-7 201 29 282 18 42 20 61 15 120 -9 100 -33 232 -45 255 -9 18 -12 60 -9 170
1 38 -7 80 -49 260 -24 101 -27 132 -24 255 6 341 2 854 -8 1005 -9 116 -20
198 -41 280 -34 135 -36 206 -9 315 11 44 20 91 20 104 0 29 24 172 50 301 11
52 20 107 20 121 0 14 5 40 11 57 l10 30 122 -1 122 -2 6 45 c4 25 10 106 14
180 6 126 25 220 45 220 22 0 45 -120 60 -315 12 -147 52 -404 95 -602 33
-152 40 -254 26 -378 -22 -192 -31 -363 -41 -730 -8 -352 -11 -384 -50 -665
-23 -162 -45 -351 -51 -420 -10 -140 -24 -247 -34 -272 -10 -26 21 -64 65 -77
22 -6 45 -21 51 -32 14 -27 4 -80 -21 -112 -15 -19 -20 -41 -20 -103 -2 -335
-5 -301 28 -331 16 -16 50 -45 74 -65 48 -39 68 -88 68 -161 0 -43 24 -66 120
-111 70 -34 80 -36 176 -36 117 0 238 27 296 65 49 32 82 96 75 145 -2 20 -17
65 -32 100 -15 36 -38 106 -51 155 -30 114 -38 128 -82 149 -36 18 -43 25 -95
99 -21 31 -26 48 -21 72 6 36 -12 115 -26 115 -12 0 -5 210 10 302 5 35 19 87
30 117 35 90 108 484 120 646 8 105 44 354 104 710 41 244 57 454 57 721 0
146 4 219 19 305 11 63 20 133 20 156 0 35 7 50 48 97 26 30 68 69 94 87 27
17 51 36 55 42 5 7 9 107 10 222 6 606 11 947 16 952 3 3 54 42 114 87 102 76
110 85 145 156 20 41 39 91 43 111 3 20 25 61 47 90 l41 54 -6 115 c-3 63 -13
165 -22 225 -73 518 -95 713 -105 940 -6 127 -15 298 -21 380 -32 464 -39 574
-49 820 -11 254 -19 356 -54 685 -8 74 -20 207 -26 295 -16 236 -41 529 -46
537 -3 4 -9 74 -14 155 l-9 148 45 104 c44 103 53 138 34 126 -16 -10 -202
-26 -222 -19 -11 3 -18 15 -18 29 0 24 -40 64 -91 91 -28 14 -29 16 -15 42 16
30 90 103 125 121 20 11 18 14 -45 74 -75 70 -239 166 -426 248 -111 49 -120
55 -150 103 -18 28 -52 75 -76 104 -40 49 -42 56 -33 85 5 18 12 55 16 82 8
66 15 75 67 95 60 22 115 116 130 224 12 82 4 106 -34 106 -17 0 -19 4 -13 27
3 14 15 37 25 50 20 26 40 105 41 163 4 194 6 181 -34 260 -41 83 -140 207
-198 250 -21 15 -71 37 -111 49 -40 13 -94 29 -120 37 -65 19 -158 16 -253
-10z"/>
</g>
</svg>
