<?xml version="1.0" standalone="no"?>
<!DOCTYPE svg PUBLIC "-//W3C//DTD SVG 20010904//EN"
 "http://www.w3.org/TR/2001/REC-SVG-20010904/DTD/svg10.dtd">
<svg version="1.0" xmlns="http://www.w3.org/2000/svg"
 width="12pt" height="12pt" viewBox="0 0 1280.000000 1154.000000"
 preserveAspectRatio="xMidYMid meet">
<metadata>
Created by potrace 1.15, written by Peter Selinger 2001-2017
</metadata>
<g transform="translate(0.000000,1154.000000) scale(0.100000,-0.100000)"
fill="#000000" stroke="none">
<path d="M605 11530 c-160 -32 -278 -127 -360 -290 -90 -178 -190 -551 -227
-845 -16 -133 -17 -937 0 -1185 32 -468 70 -820 116 -1054 68 -344 438 -1270
691 -1725 235 -423 304 -580 382 -866 61 -227 166 -492 305 -769 129 -257 219
-386 374 -537 179 -173 238 -211 462 -301 354 -141 504 -177 752 -178 431 -1
835 145 1078 390 207 208 477 610 722 1075 214 405 397 699 664 1065 295 406
566 845 669 1086 99 232 321 1007 401 1404 87 429 143 1032 133 1430 -5 223
-19 322 -68 490 -137 471 -253 521 -880 379 -239 -54 -564 -144 -769 -215
-326 -111 -468 -155 -645 -199 -357 -88 -629 -127 -890 -128 -323 -1 -433 33
-1155 358 -785 354 -1315 565 -1529 611 -72 15 -163 17 -226 4z m345 -377
c123 -30 280 -86 476 -171 131 -56 222 -99 794 -372 604 -288 919 -394 1210
-407 381 -16 999 95 1506 271 368 129 861 262 1145 310 124 21 266 24 284 5
18 -19 51 -126 74 -239 34 -161 44 -301 37 -490 -10 -292 -65 -873 -102 -1095
-34 -201 -222 -889 -344 -1257 -113 -341 -281 -637 -677 -1188 -306 -427 -488
-718 -728 -1165 -225 -419 -423 -722 -614 -941 -99 -115 -234 -196 -440 -268
-168 -59 -244 -71 -436 -70 -266 1 -460 46 -700 165 -200 98 -383 247 -506
409 -121 161 -356 702 -464 1070 -56 189 -116 331 -254 600 -69 135 -161 317
-204 405 -233 472 -488 1093 -551 1341 -138 546 -204 1739 -131 2344 44 356
140 650 236 719 89 65 192 72 389 24z"/>
<path d="M1137 9112 c-53 -58 -283 -632 -275 -686 5 -38 80 -67 808 -305 381
-124 595 -190 805 -249 244 -68 232 -66 245 -42 17 32 -8 67 -132 176 -289
256 -1075 891 -1322 1068 -84 60 -104 66 -129 38z"/>
<path d="M5375 8796 c-70 -32 -280 -157 -727 -429 -610 -372 -891 -554 -902
-583 -3 -7 3 -23 13 -36 20 -24 23 -24 270 9 32 5 42 3 37 -5 -10 -17 10 -15
210 18 590 100 1079 191 1282 237 13 3 22 13 22 23 0 13 15 23 50 35 28 9 50
22 50 29 0 97 -128 584 -181 689 -23 45 -50 48 -124 13z"/>
<path d="M1978 6231 c-42 -36 -81 -120 -110 -233 -75 -297 86 -752 363 -1029
109 -109 210 -174 376 -240 261 -104 499 -141 687 -105 167 32 396 125 536
218 81 53 221 191 283 279 137 194 219 457 221 714 1 120 -1 134 -24 179 -30
59 -72 85 -154 93 -81 8 -183 -11 -434 -83 -284 -81 -417 -107 -552 -107 -127
0 -147 6 -565 168 -380 147 -436 166 -521 172 -68 5 -72 4 -106 -26z"/>
<path d="M7509 8073 c-80 -12 -256 -139 -391 -282 -271 -286 -411 -519 -651
-1081 -279 -652 -496 -1237 -550 -1480 -88 -392 -116 -1035 -82 -1827 20 -469
16 -588 -35 -975 -45 -343 -55 -550 -41 -786 19 -297 47 -437 127 -630 170
-411 570 -781 990 -917 324 -105 629 -123 859 -49 233 74 651 312 962 546 79
59 209 158 291 219 253 192 554 384 932 594 337 188 663 394 888 562 349 261
904 906 1317 1528 154 232 248 394 384 665 207 410 301 711 288 915 -11 157
-53 225 -174 275 -233 98 -631 175 -1336 260 -333 40 -515 69 -692 109 -323
73 -807 255 -979 368 -136 90 -492 464 -823 863 -61 74 -183 221 -270 327
-445 537 -690 753 -902 793 -54 10 -64 10 -112 3z m-425 -2803 c410 -104 1049
-283 1166 -327 23 -9 -35 -20 -255 -47 -413 -52 -1152 -126 -1257 -126 -43 0
-48 3 -54 25 -7 27 10 127 56 335 36 164 52 200 83 200 14 0 131 -27 261 -60z
m2709 -1192 c463 -413 1027 -940 1027 -961 0 -27 -266 -285 -378 -368 -41 -30
-44 -31 -57 -13 -19 24 -401 791 -530 1064 -108 227 -167 360 -160 360 3 0 47
-37 98 -82z m-2386 -1389 c193 -21 469 -115 604 -204 161 -108 330 -355 422
-618 31 -90 32 -97 32 -262 0 -125 -5 -192 -18 -252 -55 -257 -170 -476 -263
-502 -76 -21 -57 -39 -511 470 -134 150 -193 199 -318 261 -209 105 -350 147
-635 188 -293 43 -433 85 -446 134 -7 28 51 206 97 298 58 116 259 289 445
382 192 96 379 129 591 105z"/>
</g>
</svg>
